<?xml version="1.0" encoding="utf-8"?>
<!-- Generator: Adobe Illustrator 19.2.0, SVG Export Plug-In . SVG Version: 6.00 Build 0)  -->
<svg version="1.1" id="Layer_1" xmlns="http://www.w3.org/2000/svg" xmlns:xlink="http://www.w3.org/1999/xlink" x="0px" y="0px"
	 viewBox="0 0 694.2 218.8" style="enable-background:new 0 0 694.2 218.8;" xml:space="preserve">
<style type="text/css">
	.st0{fill:#666666;}
</style>
<g>
	<path class="st0" d="M0.3,135.9h38c17.4,0,35.1,3.8,35.1,22.6c0,7.1-3.9,14.2-11.8,16.4v0.7c9.8,3.1,16,9.6,16,19.4
		c0,16.8-17.1,22.5-32.9,22.5H0.3V135.9 M33.5,167.3c4.8,0,10.1-0.4,10.1-6.1c0-6.1-6.1-5.6-10.8-5.6h-2.3v11.7H33.5z M30.5,198h3.7
		c5.4,0,13.1-0.1,13.1-6.8c0-6.8-8.3-6.7-13.6-6.7h-3.2V198z"/>
	<polyline class="st0" points="82.7,135.9 148.5,135.9 148.5,158.2 118.6,158.2 118.6,166 146,166 146,187.2 118.6,187.2 
		118.6,195.2 149.6,195.2 149.6,217.5 82.7,217.5 82.7,135.9 	"/>
	<path class="st0" d="M194.8,135.9l12.3,21.3h1.2c1.2-2.6,2.2-5.2,3.6-7.7l7.9-13.6h45l-37.7,46.4v35.2h-39.1v-35.2l-38.4-46.4
		H194.8"/>
	<path class="st0" d="M378,176.9c0,26.2-29.3,41.9-65.4,41.9c-36.1,0-65.4-15.7-65.4-41.9c0-25.6,29.5-42.3,65.4-42.3
		C348.5,134.6,378,151.2,378,176.9 M290.5,177.3c0,9.3,9.1,15.7,22.1,15.7c13,0,22.1-6.4,22.1-15.7c0-8.7-8.5-15.9-22.1-15.9
		C298.9,161.4,290.5,168.7,290.5,177.3z"/>
	<path class="st0" d="M517.5,135.9h67.9c61.6,0,108.8,12,108.8,42c0,24.2-38.5,39.6-92.3,39.6h-84.5V135.9 M584.2,193h4.1
		c22.2,0,39.2-4.5,39.2-15.3c0-11.5-14.9-16.3-39.2-16.3h-4.1V193z"/>
	<path class="st0" d="M679.1,146.2c0-3.7,3-6.7,6.7-6.7c3.7,0,6.7,3,6.7,6.7c0,3.7-3,6.7-6.7,6.7C682,152.8,679.1,149.9,679.1,146.2
		 M691.5,146.2c0-3.2-2.6-5.6-5.7-5.6c-3.1,0-5.7,2.5-5.7,5.6c0,3.1,2.6,5.6,5.7,5.6C688.8,151.8,691.5,149.3,691.5,146.2z
		 M689,149.8h-1.2l-2.2-3.4h-1.2v3.4h-1v-7.3h3.2c1.3,0,2.6,0.4,2.6,1.9c0,1.4-1,2-2.3,2L689,149.8z M685.5,145.4
		c0.9,0,2.5,0.2,2.5-1c0-0.8-1-0.9-1.8-0.9h-2v1.9H685.5z"/>
	<polyline class="st0" points="427.5,135.9 383.4,135.9 383.4,217.5 427.3,217.5 427.3,176 466.2,217.5 510.1,217.5 510.1,135.9 
		466.2,135.9 466.2,178.2 427.5,135.9 	"/>
	<path class="st0" d="M13.5,16.5h3.7c12.6,0,23,2.6,23,17.8c0,15.5-10.5,18.1-23.3,18.1h-3.4V16.5 M13.5,63.1h8.3
		c12,0,27.5,3.2,27.5,18.4c0,15.4-13.1,19.1-25.5,19.1H13.5V63.1z M0,112.6h25.2c19.1,0,37.6-8.6,37.6-30.3
		c0-12.6-8.9-25.1-21.7-27.4v-0.3c7.3-3.4,11.6-12.6,11.6-20.5c0-24.4-19.1-29.7-39.5-29.7H0V112.6z"/>
	<polyline class="st0" points="70.6,4.5 128.7,4.5 128.7,16.9 84.1,16.9 84.1,47.2 127.4,47.2 127.4,59.5 84.1,59.5 84.1,100.2 
		128.7,100.2 128.7,112.6 70.6,112.6 70.6,4.5 	"/>
	<path class="st0" d="M154.8,16.9h4.7c27.5,0,51.3,10.2,51.3,41.7c0,31.4-23.8,41.7-51.3,41.7h-4.7V16.9 M141.3,112.6h21.9
		c34.1,0,61.1-17.8,61.1-54.6c0-36-27.5-53.5-60.6-53.5h-22.4V112.6z"/>
	<path class="st0" d="M275.7,16.5h3.7c12.6,0,23,2.6,23,17.8c0,15.5-10.5,18.1-23.3,18.1h-3.4V16.5 M275.7,63.1h8.3
		c12,0,27.5,3.2,27.5,18.4c0,15.4-13.1,19.1-25.5,19.1h-10.3V63.1z M262.2,112.6h25.2c19.1,0,37.6-8.6,37.6-30.3
		c0-12.6-8.9-25.1-21.7-27.4v-0.3c7.3-3.4,11.6-12.6,11.6-20.5c0-24.4-19.1-29.7-39.5-29.7h-13.2V112.6z"/>
	<path class="st0" d="M395.1,73.2h-38.4l19.2-43.7L395.1,73.2 M400.7,85.6l12.3,27h14.5L375.9,0l-51.6,112.6h14.5l12.3-27H400.7z"/>
	<polyline class="st0" points="451.2,112.6 437.7,112.6 437.7,16.9 412.1,16.9 412.1,4.5 476.9,4.5 476.9,16.9 451.2,16.9 
		451.2,112.6 	"/>
	<polyline class="st0" points="549.1,48.1 549.1,4.5 562.6,4.5 562.6,112.6 549.1,112.6 549.1,60.7 497.6,60.7 497.6,112.6 
		484.2,112.6 484.2,4.5 497.6,4.5 497.6,48.1 549.1,48.1 	"/>
	<path class="st0" d="M631.3,59.3l23.9,29.3c-6.7,6.7-14.7,14.3-24.8,14.3c-10.3,0-20.1-9.6-20.1-19.9c0-10.3,12.2-17.6,19.6-22.8
		L631.3,59.3 M634.2,42.3l-3.6-4.6c-3.2-4-6.5-8-6.5-13.5c0-6.9,5.6-11.5,12.1-11.5c7.2,0,12.7,4.2,12.7,11.8
		c0,7.9-7.5,12.3-12.9,16.6L634.2,42.3z M675,112.6h16.6l-19.3-23.9l13.2-15.5l-8.6-8.9l-12.6,14.6l-22.5-27.2
		c9-6.6,19.6-14.8,19.6-27c0-14.2-11.7-22.5-24.9-22.5c-14.2,0-24.9,8.7-24.9,23.6c0,9.2,5.7,17.2,11.8,23.7l-6.7,4.9
		c-10.3,7.5-18.8,14.9-18.8,28.7c0,18.6,15,31.8,33,31.8c12.8,0,24.2-7.3,32.4-16.9L675,112.6z"/>
</g>
</svg>
